# xmcd CD database file
#
# Track frame offsets:
#	150
#	19747
#	44295
#	59102
#	79355
#	93656
#	117877
#	140008
#	155918
#	175510
#
# Disc length: 2558 seconds
#
# Revision: 2
# Processed by: cddbd v1.5.2PL0 Copyright (c) Steve Scherf et al.
# Submitted via: CDex 1.51
#
DISCID=8c09fc0a
DTITLE=Peter Green's Katmandu - A Case For The Blues
DYEAR=1984
DGENRE=Blues
TTITLE0=Dust My Broom
TTITLE1=One More Night Without You
TTITLE2=Crane's Train Boogie
TTITLE3=We're Going To Boogie
TTITLE4=Zulu Gone West
TTITLE5=Blowing All My Troubles Away
TTITLE6=Strangers Blues
TTITLE7=Sweet Sixteen
TTITLE8=Who's That Knocking
TTITLE9=The Case
EXTD=YEAR: 1984
EXTT0=
EXTT1=
EXTT2=
EXTT3=
EXTT4=
EXTT5=
EXTT6=
EXTT7=
EXTT8=
EXTT9=
PLAYORDER=
